<svg xmlns="http://www.w3.org/2000/svg" xmlns:xlink="http://www.w3.org/1999/xlink" width="28.251" height="32.216" viewBox="0 0 28.251 32.216"><defs><style>.a{fill:none;}.b{fill:#1b243e;}.b,.c{stroke:#fff;}.c,.d{fill:#fff;}.e,.f{opacity:0.8;mix-blend-mode:multiply;isolation:isolate;}.e{fill:url(#a);}.f{fill:url(#b);}</style><linearGradient id="a" x1="-3.03" y1="0.499" x2="5.049" y2="0.499" gradientUnits="objectBoundingBox"><stop offset="0" stop-color="#fff"/><stop offset="1" stop-color="#b7c6ce"/></linearGradient><linearGradient id="b" x1="-4.049" y1="0.499" x2="4.03" y2="0.499" xlink:href="#a"/></defs><g transform="translate(0.5 0.5)"><path class="a" d="M694.221,1156.173a12.173,12.173,0,1,0-12.173,12.173A12.186,12.186,0,0,0,694.221,1156.173Zm-12.173,4.219a6.267,6.267,0,1,1,6.267-6.267A6.274,6.274,0,0,1,682.048,1160.391Z" transform="translate(-669.634 -1143.759)"/><path class="a" d="M695.727,1246.164a11.925,11.925,0,0,1-11.846-.664h-2.169a1.214,1.214,0,0,0-1.213,1.213v3.842a1.214,1.214,0,0,0,1.213,1.213h15.577a6.018,6.018,0,0,1-1.562-5.6Z" transform="translate(-677.697 -1220.792)"/><path class="a" d="M701.4,1161a6.026,6.026,0,1,0,6.026,6.026A6.033,6.033,0,0,0,701.4,1161Zm0,10.365a4.339,4.339,0,1,1,4.339-4.339A4.339,4.339,0,0,1,701.4,1171.365Z" transform="translate(-688.987 -1156.661)"/><path class="b" d="M689.58,1164.643a12.467,12.467,0,1,0-1.1.878A6.045,6.045,0,0,1,689.58,1164.643Zm-20.465-9.229a12.173,12.173,0,1,1,12.173,12.173A12.187,12.187,0,0,1,669.116,1155.414Z" transform="translate(-668.875 -1143)"/><path class="c" d="M700.642,1160a6.267,6.267,0,1,0,6.267,6.267A6.274,6.274,0,0,0,700.642,1160Zm0,12.293a6.026,6.026,0,1,1,6.026-6.026A6.033,6.033,0,0,1,700.642,1172.293Z" transform="translate(-688.228 -1155.902)"/><ellipse class="d" cx="4.339" cy="4.339" rx="4.339" ry="4.339" transform="translate(8.075 6.026)"/><path d="M767.97,1229h0Z" transform="translate(-744.077 -1208.27)"/><path d="M750.217,1233.666a12.473,12.473,0,0,0,1.1-.878A6.057,6.057,0,0,0,750.217,1233.666Z" transform="translate(-730.609 -1211.145)"/><path class="e" d="M764,1229v.078a6,6,0,0,1,.955-.078Z" transform="translate(-741.07 -1208.271)"/><path class="f" d="M768.993,1229h-.955a6,6,0,0,1,.955.078Z" transform="translate(-744.135 -1208.271)"/><g transform="translate(2.562 19.525)"><path class="a" d="M742.482,1236.615c-.158.079-.32.152-.482.226v.979h2.892v2.893h1.928v-2.893h2.893v-1.928h-2.893V1233h-1.928v2.443a1.473,1.473,0,0,1,.071.209h-.071v.241H742v.474A.51.51,0,0,1,742.482,1236.615Z" transform="translate(-726.934 -1230.83)"/><path class="a" d="M683.881,1245.5h-2.169a1.214,1.214,0,0,0-1.213,1.213v3.842a1.214,1.214,0,0,0,1.213,1.213H696.8a6.056,6.056,0,0,1-1.427-.964c-.086-.078-.168-.159-.248-.241a6,6,0,0,1-1.687-3.557,11.7,11.7,0,0,1-3.05.423A11.882,11.882,0,0,1,683.881,1245.5Z" transform="translate(-680.259 -1240.317)"/><path class="b" d="M680.954,1251.008a1.214,1.214,0,0,1-1.213-1.212v-3.842a1.214,1.214,0,0,1,1.213-1.213h2.169a11.88,11.88,0,0,0,6.5,1.929,11.7,11.7,0,0,0,3.05-.423c-.007-.068-.013-.138-.018-.207a6.642,6.642,0,0,1-3.032.389,11.64,11.64,0,0,1-6.4-1.909l-.03-.02h-2.241a1.455,1.455,0,0,0-1.454,1.454v3.842a1.456,1.456,0,0,0,1.454,1.454h15.653a6.015,6.015,0,0,1-.57-.241Z" transform="translate(-679.5 -1239.558)"/><path class="d" d="M740.99,1224.079a6.017,6.017,0,0,0-.955-.078h-.019a6.027,6.027,0,0,0-3.179.913c-.427.292-.716.605-1.1.878a6.025,6.025,0,0,0-1.495,2.535c-.03.1-.058.209-.083.315a6.045,6.045,0,0,0-.161,1.385c0,.153.007.3.019.455.005.069.011.138.018.207a6.006,6.006,0,0,0,1.687,3.557c.081.082.163.163.249.241a6.022,6.022,0,0,0,1.426.964h.494c.081.083.163.163.249.241h-.172a6.026,6.026,0,1,0,3.02-11.612Zm-2.169,4.534v-2.443h1.928v2.893h2.893v1.928h-2.893v2.893h-1.928v-2.893h-2.893v-1.928h2.893v-.241" transform="translate(-720.863 -1224.001)"/><path d="M748.6,1271.5H748.1a5.946,5.946,0,0,0,.57.241h.173C748.76,1271.663,748.678,1271.583,748.6,1271.5Z" transform="translate(-731.567 -1260.051)"/></g></g></svg>