<svg xmlns="http://www.w3.org/2000/svg" width="42.234" height="42.234" viewBox="0 0 42.234 42.234"><defs><style>.a{fill:#fff;}</style></defs><g transform="translate(-1104.16 -1041.771)"><path class="a" d="M1125.277,1084.005a21.117,21.117,0,1,0-21.117-21.117A21.251,21.251,0,0,0,1125.277,1084.005Zm0-14.043c-6.611,0-11.643,2.653-13.6,5.306a18.392,18.392,0,1,1,27.2.021C1136.92,1072.615,1131.909,1069.962,1125.277,1069.962Zm0-3.6c4.042.021,7.179-3.432,7.179-7.937,0-4.232-3.179-7.769-7.179-7.769s-7.2,3.537-7.179,7.769C1118.119,1062.93,1121.235,1066.341,1125.277,1066.362Z"/></g></svg>