<svg xmlns="http://www.w3.org/2000/svg" width="20.024" height="18.345" viewBox="0 0 20.024 18.345"><defs><style>.a{fill:#fff;}</style></defs><path class="a" d="M1194.682,888,1187,874.319a2.3,2.3,0,0,0-4.019,0l-1.286,2.29h0L1175.3,888a2.314,2.314,0,0,0-.322,1.143,2.271,2.271,0,0,0,2.34,2.34h15.362a2.257,2.257,0,0,0,2.322-2.34A2.142,2.142,0,0,0,1194.682,888Zm-9.7,1.588a1.4,1.4,0,1,1,1.411-1.411A1.41,1.41,0,0,1,1184.983,889.59Zm-1.054-10.289a1.008,1.008,0,0,1,1.072-1.09,1.031,1.031,0,0,1,1.09,1.09l-.125,5.287a.92.92,0,0,1-.965.929.9.9,0,0,1-.947-.929Z" transform="translate(-1174.98 -873.14)"/></svg>