<svg xmlns="http://www.w3.org/2000/svg" width="16.142" height="16.143" viewBox="0 0 16.142 16.143"><defs><style>.a{fill:#fff;}</style></defs><g transform="translate(-1404.901 -1045.873)"><path class="a" d="M1404.9,1050.494h1.412v-1.833a1.224,1.224,0,0,1,1.359-1.377h1.815v-1.412h-1.833a2.418,2.418,0,0,0-2.753,2.718Zm5.787-3.209h4.568v-1.412h-4.568Zm8.944,3.209h1.412v-1.9a2.422,2.422,0,0,0-2.753-2.718h-1.833v1.412h1.815a1.227,1.227,0,0,1,1.359,1.377Zm0,5.7h1.412v-4.5h-1.412Zm-14.731,0h1.412v-4.5H1404.9Zm11.557,5.822h1.833a2.422,2.422,0,0,0,2.753-2.718v-1.9h-1.412v1.833a1.227,1.227,0,0,1-1.359,1.377h-1.815Zm-8.8,0h1.833V1060.6h-1.815a1.224,1.224,0,0,1-1.359-1.377v-1.833H1404.9v1.9A2.418,2.418,0,0,0,1407.654,1062.016Zm3.034,0h4.568V1060.6h-4.568Z"/></g></svg>