<svg xmlns="http://www.w3.org/2000/svg" width="15.68" height="15.552" viewBox="0 0 15.68 15.552"><defs><style>.a{fill:#205928;}</style></defs><g transform="translate(0 0)"><path class="a" d="M9.593,18.784a1.045,1.045,0,0,0,.92-.51l8.6-13.541a1.231,1.231,0,0,0,.228-.673.779.779,0,0,0-.828-.828.81.81,0,0,0-.782.464L9.557,16.719l-4.24-5.551a.887.887,0,0,0-.783-.446.826.826,0,0,0-.874.855,1.106,1.106,0,0,0,.264.664l4.723,6.016A1.132,1.132,0,0,0,9.593,18.784Z" transform="translate(-3.66 -3.232)"/></g></svg>