<svg xmlns="http://www.w3.org/2000/svg" width="35" height="24.895" viewBox="0 0 35 24.895"><defs><style>.a{fill:#fff;}</style></defs><path class="a" d="M1391.825,1050.742h26.933a1.092,1.092,0,1,0,0-2.183h-26.933a1.092,1.092,0,0,0,0,2.183Zm0,7.575h9.036a1.092,1.092,0,1,0,0-2.183h-9.036a1.092,1.092,0,0,0,0,2.183Zm14.818,14.991h17.131a1.829,1.829,0,0,0,1.966-1.937v-13.156a1.833,1.833,0,0,0-1.966-1.923h-17.131a1.821,1.821,0,0,0-1.952,1.923v13.156A1.818,1.818,0,0,0,1406.644,1073.309Zm.13-12.881a.455.455,0,0,1-.477-.477v-1.59a.459.459,0,0,1,.477-.491h1.359a.459.459,0,0,1,.477.491v1.59a.455.455,0,0,1-.477.477Zm15.512,0a.455.455,0,0,1-.477-.477v-1.59a.459.459,0,0,1,.477-.491h1.359a.47.47,0,0,1,.491.491v1.59a.467.467,0,0,1-.491.477Zm-11.652,3.3a.426.426,0,0,1-.463-.463v-4.351a.426.426,0,0,1,.463-.463h9.151a.426.426,0,0,1,.463.463v4.351a.426.426,0,0,1-.463.463Zm-3.86.463a.449.449,0,0,1-.477-.448v-1.6a.459.459,0,0,1,.477-.491h1.359a.459.459,0,0,1,.477.491v1.6a.449.449,0,0,1-.477.448Zm15.512,0a.449.449,0,0,1-.477-.448v-1.6a.459.459,0,0,1,.477-.491h1.359a.47.47,0,0,1,.491.491v1.6a.461.461,0,0,1-.491.448Zm-30.461,1.706h9.036a1.1,1.1,0,0,0,1.113-1.1,1.09,1.09,0,0,0-1.113-1.084h-9.036a1.074,1.074,0,0,0-1.084,1.084A1.086,1.086,0,0,0,1391.825,1065.893Zm14.949,2.052a.441.441,0,0,1-.477-.448v-1.6a.459.459,0,0,1,.477-.492h1.359a.459.459,0,0,1,.477.492v1.6a.441.441,0,0,1-.477.448Zm15.512,0a.441.441,0,0,1-.477-.448v-1.6a.459.459,0,0,1,.477-.492h1.359a.471.471,0,0,1,.491.492v1.6a.453.453,0,0,1-.491.448Zm-11.652,3.2a.426.426,0,0,1-.463-.462v-4.308a.43.43,0,0,1,.463-.477h9.151a.43.43,0,0,1,.463.477v4.308a.426.426,0,0,1-.463.462Zm-3.86.578a.444.444,0,0,1-.477-.462v-1.6a.459.459,0,0,1,.477-.491h1.359a.459.459,0,0,1,.477.491v1.6a.444.444,0,0,1-.477.462Zm15.512,0a.444.444,0,0,1-.477-.462v-1.6a.459.459,0,0,1,.477-.491h1.359a.47.47,0,0,1,.491.491v1.6a.456.456,0,0,1-.491.462Zm-30.461,1.735h9.036a1.089,1.089,0,0,0,1.113-1.084,1.1,1.1,0,0,0-1.113-1.1h-9.036a1.086,1.086,0,0,0-1.084,1.1A1.074,1.074,0,0,0,1391.825,1073.454Z" transform="translate(-1390.741 -1048.559)"/></svg>