<svg xmlns="http://www.w3.org/2000/svg" width="16" height="16" viewBox="0 0 16 16"><defs><style>.a{fill:none;}.b{fill:#fff;}</style></defs><g transform="translate(0 -0.323)"><rect class="a" width="16" height="16" transform="translate(0 0.323)"/><path class="b" d="M16,.4V9.733a.287.287,0,0,1-.267.267H15.6c-.133,0-.133,0-.267-.133L12,6.533V9.067c0,.267-.133.4-.267.667a1.43,1.43,0,0,1-.8.267H1.067A1.018,1.018,0,0,1,.4,9.733c-.267-.267-.4-.4-.4-.667v-8A1.018,1.018,0,0,1,.267.4a.95.95,0,0,1,.8-.4h10a1.018,1.018,0,0,1,.667.267,1.9,1.9,0,0,1,.267.8V3.6L15.467.133C15.467,0,15.6,0,15.733,0,15.867.133,16,.133,16,.4Z" transform="translate(0 3)"/></g></svg>