<svg xmlns="http://www.w3.org/2000/svg" width="208" height="83.763" viewBox="0 0 208 83.763"><defs><style>.a{opacity:0.82;}.b,.d{fill:#f2f6fa;}.b{font-size:24px;font-family:PingFangTC-Regular, PingFang TC;letter-spacing:0.045em;}.c{font-family:ArialMT, Arial;}</style></defs><g class="a" transform="translate(-0.153)"><text class="b" transform="translate(104.153 75.763)"><tspan x="-103.654" y="0">智慧監控</tspan><tspan class="c" y="0"> </tspan><tspan y="0">盡在昇銳</tspan></text><g transform="translate(18.458)"><path class="d" d="M448.415,53.007V37.424h3.146v6.134h6.165V37.424h3.147V53.007h-3.147V46.194h-6.165v6.813Z" transform="translate(-396.218 -33.522)"/><rect class="d" width="3.146" height="15.583" transform="translate(67.812 3.902)"/><path class="d" d="M480.439,47.887l3.062-.3a3.741,3.741,0,0,0,1.121,2.265,3.4,3.4,0,0,0,2.281.723,3.5,3.5,0,0,0,2.291-.644,1.915,1.915,0,0,0,.771-1.5,1.417,1.417,0,0,0-.325-.94,2.59,2.59,0,0,0-1.133-.676q-.552-.191-2.519-.68a8.543,8.543,0,0,1-3.549-1.542A4.05,4.05,0,0,1,481,41.456a4.007,4.007,0,0,1,.676-2.227,4.226,4.226,0,0,1,1.945-1.578,7.8,7.8,0,0,1,3.068-.542,6.575,6.575,0,0,1,4.415,1.287,4.538,4.538,0,0,1,1.557,3.434l-3.145.137a2.672,2.672,0,0,0-.868-1.727,3.164,3.164,0,0,0-1.992-.525,3.6,3.6,0,0,0-2.148.563,1.136,1.136,0,0,0-.5.967,1.2,1.2,0,0,0,.467.946,8.271,8.271,0,0,0,2.892,1.042,15.257,15.257,0,0,1,3.4,1.122,4.385,4.385,0,0,1,1.722,1.584,4.635,4.635,0,0,1,.622,2.482,4.585,4.585,0,0,1-.744,2.507,4.456,4.456,0,0,1-2.1,1.739,8.842,8.842,0,0,1-3.391.568,6.746,6.746,0,0,1-4.539-1.366,5.938,5.938,0,0,1-1.892-3.981" transform="translate(-401.233 -33.473)"/><path class="d" d="M498.613,53.007V37.424h3.146v6.134h6.165V37.424h3.147V53.007h-3.147V46.194h-6.165v6.813Z" transform="translate(-404.078 -33.522)"/><path class="d" d="M531,53.007h-3.422l-1.361-3.539h-6.229L518.7,53.007h-3.338l6.07-15.583h3.327ZM525.2,46.842l-2.147-5.782-2.105,5.782Z" transform="translate(-406.701 -33.522)"/><path class="d" d="M535.893,53.007V37.425h6.622a11.333,11.333,0,0,1,3.629.419,3.584,3.584,0,0,1,1.812,1.494,4.485,4.485,0,0,1,.681,2.455,4.159,4.159,0,0,1-1.031,2.9,4.953,4.953,0,0,1-3.083,1.441,7.407,7.407,0,0,1,1.685,1.307A17.984,17.984,0,0,1,548,49.967l1.9,3.04H546.14l-2.275-3.391a22.017,22.017,0,0,0-1.658-2.292,2.407,2.407,0,0,0-.945-.647,5.185,5.185,0,0,0-1.584-.175h-.638v6.5Zm3.147-8.993h2.328a12.022,12.022,0,0,0,2.827-.191,1.689,1.689,0,0,0,.882-.659,2.038,2.038,0,0,0,.319-1.17,1.873,1.873,0,0,0-.42-1.27,1.928,1.928,0,0,0-1.185-.611q-.383-.053-2.3-.053H539.04Z" transform="translate(-409.916 -33.523)"/><path class="d" d="M554.521,53.007V37.425h5.048a18.4,18.4,0,0,1,3.742.233,4.1,4.1,0,0,1,2.243,1.526,4.845,4.845,0,0,1,.9,3.035,5.08,5.08,0,0,1-.521,2.412,4.236,4.236,0,0,1-1.324,1.535,4.522,4.522,0,0,1-1.631.74,17.98,17.98,0,0,1-3.262.224h-2.053v5.878Zm3.145-12.946v4.422h1.723a8.18,8.18,0,0,0,2.487-.244,2.063,2.063,0,0,0,.982-.767,2.09,2.09,0,0,0,.358-1.212,2.013,2.013,0,0,0-.5-1.4,2.163,2.163,0,0,0-1.265-.691,15.13,15.13,0,0,0-2.264-.106Z" transform="translate(-412.833 -33.523)"/><path class="d" d="M448.519,68.79V62.455H453.1V63.2h-3.744v1.941h3.505v.744h-3.505v2.156h3.891v.748Z" transform="translate(-396.235 -37.442)"/><path class="d" d="M455.457,68.79V62.455h.838v5.588h3.12v.748Z" transform="translate(-397.321 -37.442)"/><path class="d" d="M461.354,68.79V62.455h4.581V63.2h-3.742v1.941h3.5v.744h-3.5v2.156h3.889v.748Z" transform="translate(-398.244 -37.442)"/><path class="d" d="M472.81,66.548l.838.213a2.821,2.821,0,0,1-.95,1.575,2.606,2.606,0,0,1-1.673.542,3.015,3.015,0,0,1-1.667-.417,2.6,2.6,0,0,1-.977-1.208,4.309,4.309,0,0,1-.335-1.7,3.721,3.721,0,0,1,.379-1.726,2.584,2.584,0,0,1,1.075-1.119,3.137,3.137,0,0,1,1.537-.383,2.593,2.593,0,0,1,1.6.484,2.513,2.513,0,0,1,.9,1.362l-.825.193a1.965,1.965,0,0,0-.639-1.006,1.708,1.708,0,0,0-1.055-.315,2.043,2.043,0,0,0-1.22.35,1.844,1.844,0,0,0-.689.94,3.771,3.771,0,0,0-.2,1.217,3.874,3.874,0,0,0,.235,1.411,1.759,1.759,0,0,0,.732.9,2.079,2.079,0,0,0,1.076.3,1.807,1.807,0,0,0,1.193-.407,2.083,2.083,0,0,0,.661-1.206" transform="translate(-399.292 -37.422)"/><path class="d" d="M477.435,68.79V63.2h-2.087v-.747h5.022V63.2h-2.1V68.79Z" transform="translate(-400.436 -37.442)"/><path class="d" d="M482.339,68.791V62.455h2.808a3.766,3.766,0,0,1,1.289.17,1.419,1.419,0,0,1,.705.6,1.807,1.807,0,0,1,.263.955,1.592,1.592,0,0,1-.437,1.137,2.216,2.216,0,0,1-1.348.588,2.14,2.14,0,0,1,.505.315,4.33,4.33,0,0,1,.7.843l1.1,1.725h-1.055l-.838-1.318q-.367-.572-.6-.874a1.866,1.866,0,0,0-.427-.423,1.216,1.216,0,0,0-.381-.169,2.512,2.512,0,0,0-.467-.03h-.972v2.814Zm.838-3.541h1.8a2.732,2.732,0,0,0,.9-.118.95.95,0,0,0,.492-.38,1.025,1.025,0,0,0,.169-.568.949.949,0,0,0-.326-.74,1.532,1.532,0,0,0-1.031-.288h-2Z" transform="translate(-401.53 -37.442)"/><path class="d" d="M489.6,65.683a3.443,3.443,0,0,1,.847-2.47,2.88,2.88,0,0,1,2.187-.891,3.032,3.032,0,0,1,1.581.418,2.738,2.738,0,0,1,1.074,1.169,3.8,3.8,0,0,1,.369,1.7,3.738,3.738,0,0,1-.388,1.725,2.654,2.654,0,0,1-1.1,1.151,3.152,3.152,0,0,1-1.539.391,2.994,2.994,0,0,1-1.6-.432,2.784,2.784,0,0,1-1.07-1.18,3.587,3.587,0,0,1-.362-1.582m.864.013a2.537,2.537,0,0,0,.617,1.8,2.15,2.15,0,0,0,3.1-.006,2.694,2.694,0,0,0,.611-1.889,3.24,3.24,0,0,0-.261-1.35,2.015,2.015,0,0,0-.765-.894,2.064,2.064,0,0,0-1.129-.318,2.145,2.145,0,0,0-1.532.611,2.727,2.727,0,0,0-.643,2.042" transform="translate(-402.667 -37.421)"/><path class="d" d="M498.053,68.79V62.455h.86l3.328,4.974V62.455h.8V68.79h-.861l-3.327-4.979V68.79Z" transform="translate(-403.991 -37.442)"/><rect class="d" width="0.838" height="6.336" transform="translate(100.605 25.012)"/><path class="d" d="M513.033,66.548l.838.213a2.829,2.829,0,0,1-.948,1.575,2.61,2.61,0,0,1-1.675.542,3.014,3.014,0,0,1-1.667-.417,2.6,2.6,0,0,1-.976-1.208,4.293,4.293,0,0,1-.336-1.7,3.732,3.732,0,0,1,.379-1.726,2.593,2.593,0,0,1,1.075-1.119,3.142,3.142,0,0,1,1.537-.383,2.6,2.6,0,0,1,1.6.484,2.523,2.523,0,0,1,.9,1.362l-.826.193a1.963,1.963,0,0,0-.641-1.006,1.7,1.7,0,0,0-1.054-.315,2.046,2.046,0,0,0-1.22.35,1.844,1.844,0,0,0-.689.94,3.8,3.8,0,0,0-.2,1.217,3.89,3.89,0,0,0,.235,1.411,1.763,1.763,0,0,0,.732.9,2.08,2.08,0,0,0,1.077.3,1.808,1.808,0,0,0,1.193-.407,2.082,2.082,0,0,0,.66-1.206" transform="translate(-405.591 -37.422)"/><path class="d" d="M515.8,66.735l.79-.07a1.749,1.749,0,0,0,.261.781,1.436,1.436,0,0,0,.638.493,2.409,2.409,0,0,0,.972.189,2.327,2.327,0,0,0,.848-.144,1.174,1.174,0,0,0,.547-.391.91.91,0,0,0,.179-.541.828.828,0,0,0-.173-.521,1.3,1.3,0,0,0-.57-.374,10.892,10.892,0,0,0-1.128-.31,5.708,5.708,0,0,1-1.222-.395,1.706,1.706,0,0,1-.676-.59,1.435,1.435,0,0,1-.223-.788,1.617,1.617,0,0,1,.271-.9,1.7,1.7,0,0,1,.8-.633,3.044,3.044,0,0,1,1.162-.215,3.16,3.16,0,0,1,1.241.227,1.8,1.8,0,0,1,.828.667,1.928,1.928,0,0,1,.311,1l-.8.061a1.294,1.294,0,0,0-.439-.908,1.708,1.708,0,0,0-1.1-.307,1.776,1.776,0,0,0-1.109.278.84.84,0,0,0-.348.673.719.719,0,0,0,.247.562,3.353,3.353,0,0,0,1.264.451,8.443,8.443,0,0,1,1.4.4,1.909,1.909,0,0,1,.816.646,1.568,1.568,0,0,1,.263.9,1.713,1.713,0,0,1-.289.953,1.9,1.9,0,0,1-.831.7,2.911,2.911,0,0,1-1.222.248,3.633,3.633,0,0,1-1.441-.25,2.02,2.02,0,0,1-.912-.753,2.14,2.14,0,0,1-.348-1.139" transform="translate(-406.769 -37.422)"/><path class="d" d="M530.528,66.548l.837.213a2.819,2.819,0,0,1-.948,1.575,2.608,2.608,0,0,1-1.675.542,3.017,3.017,0,0,1-1.667-.417,2.6,2.6,0,0,1-.976-1.208,4.308,4.308,0,0,1-.335-1.7,3.731,3.731,0,0,1,.378-1.726,2.59,2.59,0,0,1,1.076-1.119,3.136,3.136,0,0,1,1.536-.383,2.6,2.6,0,0,1,1.6.484,2.526,2.526,0,0,1,.9,1.362l-.826.193a1.96,1.96,0,0,0-.639-1.006,1.71,1.71,0,0,0-1.055-.315,2.045,2.045,0,0,0-1.22.35,1.85,1.85,0,0,0-.69.94,3.817,3.817,0,0,0-.2,1.217,3.892,3.892,0,0,0,.234,1.411,1.768,1.768,0,0,0,.733.9,2.075,2.075,0,0,0,1.077.3,1.808,1.808,0,0,0,1.193-.407,2.084,2.084,0,0,0,.661-1.206" transform="translate(-408.33 -37.422)"/><path class="d" d="M533.328,65.683a3.447,3.447,0,0,1,.846-2.47,2.883,2.883,0,0,1,2.187-.891,3.032,3.032,0,0,1,1.581.418,2.73,2.73,0,0,1,1.074,1.169,3.788,3.788,0,0,1,.37,1.7,3.729,3.729,0,0,1-.39,1.725,2.645,2.645,0,0,1-1.1,1.151,3.153,3.153,0,0,1-1.539.391,3,3,0,0,1-1.6-.432,2.768,2.768,0,0,1-1.068-1.18,3.574,3.574,0,0,1-.363-1.582m.864.013a2.541,2.541,0,0,0,.616,1.8,2.15,2.15,0,0,0,3.1-.006,2.686,2.686,0,0,0,.612-1.889,3.24,3.24,0,0,0-.262-1.35,2,2,0,0,0-.764-.894,2.071,2.071,0,0,0-1.131-.318,2.146,2.146,0,0,0-1.532.611,2.731,2.731,0,0,0-.642,2.042" transform="translate(-409.514 -37.421)"/><rect class="d" width="0.886" height="0.886" transform="translate(131.075 30.463)"/><path class="d" d="M544.821,69.8v-.886h.886V69.8a1.572,1.572,0,0,1-.173.788,1.123,1.123,0,0,1-.549.465l-.217-.331a.742.742,0,0,0,.364-.319,1.337,1.337,0,0,0,.13-.6Z" transform="translate(-411.306 -38.454)"/><path class="d" d="M550.5,68.79V62.455h.838v5.588h3.12v.748Z" transform="translate(-412.203 -37.442)"/><path class="d" d="M557.121,68.79V63.2h-2.088v-.747h5.023V63.2h-2.1V68.79Z" transform="translate(-412.913 -37.442)"/><path class="d" d="M562.006,68.791V62.455h2.185a5.283,5.283,0,0,1,1.127.09,2.154,2.154,0,0,1,.929.454A2.566,2.566,0,0,1,567,64.083a4.242,4.242,0,0,1,.249,1.5,4.425,4.425,0,0,1-.168,1.279,3.082,3.082,0,0,1-.433.923,2.282,2.282,0,0,1-.577.574,2.326,2.326,0,0,1-.756.318,4.338,4.338,0,0,1-1.018.109Zm.84-.748H564.2a3.289,3.289,0,0,0,.983-.116,1.4,1.4,0,0,0,.568-.33,1.994,1.994,0,0,0,.464-.8,3.881,3.881,0,0,0,.167-1.221,2.966,2.966,0,0,0-.326-1.527,1.648,1.648,0,0,0-.794-.716,3.309,3.309,0,0,0-1.085-.13h-1.33Z" transform="translate(-414.005 -37.442)"/><rect class="d" width="0.886" height="0.886" transform="translate(154.516 30.463)"/><path class="d" d="M396.015,86.611a5.341,5.341,0,0,1-1.55-.2,3.136,3.136,0,0,1-1.1-.563,2.322,2.322,0,0,1-.655-.856,2.826,2.826,0,0,1-.234-1.078h1.054a1.765,1.765,0,0,0,.237.781,1.659,1.659,0,0,0,.524.542,2.376,2.376,0,0,0,.754.317,3.843,3.843,0,0,0,.918.1,3.6,3.6,0,0,0,.825-.089,2.059,2.059,0,0,0,.647-.262,1.328,1.328,0,0,0,.423-.424,1.175,1.175,0,0,0,.016-1.129,1.155,1.155,0,0,0-.442-.4,3.538,3.538,0,0,0-.8-.31c-.331-.09-.735-.186-1.211-.283a7.111,7.111,0,0,1-1.234-.342,3.011,3.011,0,0,1-.825-.461,1.562,1.562,0,0,1-.456-.6,2.023,2.023,0,0,1-.139-.768,1.916,1.916,0,0,1,.208-.886,2,2,0,0,1,.593-.7,2.935,2.935,0,0,1,.93-.456,4.216,4.216,0,0,1,1.218-.164,4.767,4.767,0,0,1,1.267.159,3,3,0,0,1,.99.464,2.253,2.253,0,0,1,.653.75,2.2,2.2,0,0,1,.251,1.016h-1.07q-.153-1.456-2.042-1.457a2.576,2.576,0,0,0-1.441.335,1.019,1.019,0,0,0-.5.875,1.041,1.041,0,0,0,.083.433.768.768,0,0,0,.3.32,2.416,2.416,0,0,0,.588.254q.371.115.95.236t1,.239q.434.113.762.217a3.085,3.085,0,0,1,.582.277,2.332,2.332,0,0,1,.5.42,1.925,1.925,0,0,1,.358.574,1.905,1.905,0,0,1,.134.73,2.025,2.025,0,0,1-.227.954,2.294,2.294,0,0,1-.633.752,3.105,3.105,0,0,1-.972.5,4.032,4.032,0,0,1-1.236.181" transform="translate(-387.46 -39.936)"/><path class="d" d="M408.3,86.5h-6.174v-7.95h5.982v.938h-4.9v2.427h4.576v.949H403.2v2.684H408.3Z" transform="translate(-388.97 -39.962)"/><path class="d" d="M418.037,80.919h-1.131a1.8,1.8,0,0,0-.223-.671,1.708,1.708,0,0,0-.458-.516,2.115,2.115,0,0,0-.68-.327,3.082,3.082,0,0,0-.87-.116,2.911,2.911,0,0,0-1.148.217,2.356,2.356,0,0,0-.859.624,2.8,2.8,0,0,0-.541,1,4.551,4.551,0,0,0-.187,1.362,4.447,4.447,0,0,0,.193,1.373,2.921,2.921,0,0,0,.544,1.01,2.22,2.22,0,0,0,.848.621,2.89,2.89,0,0,0,1.128.21,2.47,2.47,0,0,0,1.6-.462,1.831,1.831,0,0,0,.657-1.3h1.131a2.863,2.863,0,0,1-.339,1.142,2.655,2.655,0,0,1-.726.836,3.168,3.168,0,0,1-1.036.511,4.473,4.473,0,0,1-1.267.174,4.263,4.263,0,0,1-1.6-.288,3.361,3.361,0,0,1-1.217-.826,3.716,3.716,0,0,1-.776-1.3,5.475,5.475,0,0,1,0-3.412,3.678,3.678,0,0,1,.776-1.294,3.379,3.379,0,0,1,1.217-.824,4.263,4.263,0,0,1,1.6-.288,4.2,4.2,0,0,1,1.255.183,3.485,3.485,0,0,1,1.041.518,2.712,2.712,0,0,1,.731.8,2.514,2.514,0,0,1,.342,1.035" transform="translate(-390.329 -39.936)"/><path class="d" d="M424.441,86.638a5.057,5.057,0,0,1-1.265-.139,2.927,2.927,0,0,1-.886-.38,1.992,1.992,0,0,1-.575-.57,2.807,2.807,0,0,1-.334-.719,3.864,3.864,0,0,1-.15-.815q-.032-.428-.032-.863v-4.6h1.08v4.58a4.833,4.833,0,0,0,.142,1.29,1.82,1.82,0,0,0,.415.781,1.375,1.375,0,0,0,.675.382,3.871,3.871,0,0,0,.931.1,3.713,3.713,0,0,0,.928-.1,1.414,1.414,0,0,0,.676-.385,1.812,1.812,0,0,0,.413-.778,4.934,4.934,0,0,0,.138-1.285v-4.58h1.093v4.6a6.586,6.586,0,0,1-.148,1.468,2.637,2.637,0,0,1-.513,1.1,2.288,2.288,0,0,1-1,.687,4.6,4.6,0,0,1-1.591.236" transform="translate(-391.957 -39.962)"/><path class="d" d="M438.02,86.5h-1.19l-.78-2.122a2.153,2.153,0,0,0-.286-.514,1.946,1.946,0,0,0-.413-.407,1.874,1.874,0,0,0-.515-.264,1.815,1.815,0,0,0-.592-.094H432.2v3.4h-1.081v-7.95h3.658a6.069,6.069,0,0,1,1.211.112,2.625,2.625,0,0,1,.934.37,1.714,1.714,0,0,1,.6.683,2.382,2.382,0,0,1,.21,1.056,2.15,2.15,0,0,1-.134.778,1.9,1.9,0,0,1-.38.616,2.166,2.166,0,0,1-.59.45,2.87,2.87,0,0,1-.758.273,2.178,2.178,0,0,1,1.321,1.446ZM432.2,82.146h2.451a4.891,4.891,0,0,0,.869-.067,1.6,1.6,0,0,0,.6-.229.954.954,0,0,0,.355-.422,1.63,1.63,0,0,0,.116-.655q0-1.352-1.77-1.352H432.2Z" transform="translate(-393.51 -39.962)"/><rect class="d" width="1.113" height="7.95" transform="translate(46.099 38.589)"/><path class="d" d="M450.612,79.489h-2.751V86.5h-1.1V79.489H444.04v-.938h6.573Z" transform="translate(-395.533 -39.962)"/><path class="d" d="M459.806,78.551l-3.253,4.581V86.5h-1.1V83.132L452.2,78.551h1.337l2.478,3.658,2.468-3.658Z" transform="translate(-396.81 -39.962)"/><rect class="d" width="1.113" height="7.95" transform="translate(72.407 38.589)"/><path class="d" d="M482.539,86.5h-1.125l-4.339-6.278V86.5h-1.026v-7.95h1.107l4.346,6.273V78.551h1.037Z" transform="translate(-400.545 -39.962)"/><path class="d" d="M491.727,79.489h-2.751V86.5h-1.1V79.489h-2.724v-.938h6.572Z" transform="translate(-401.971 -39.962)"/><path class="d" d="M500.533,86.5h-6.175v-7.95h5.983v.938h-4.9v2.427h4.575v.949H495.44v2.684h5.093Z" transform="translate(-403.412 -39.962)"/><path class="d" d="M508.632,86.5h-5.12v-7.95h1.08v7h4.04Z" transform="translate(-404.845 -39.962)"/><path class="d" d="M516.275,86.5h-5.12v-7.95h1.081v7h4.039Z" transform="translate(-406.042 -39.962)"/><rect class="d" width="1.113" height="7.95" transform="translate(111.68 38.589)"/><path class="d" d="M526.152,86.611a4.309,4.309,0,0,1-1.633-.3,3.7,3.7,0,0,1-1.269-.841,3.775,3.775,0,0,1-.819-1.295,4.605,4.605,0,0,1-.293-1.678,4.784,4.784,0,0,1,.282-1.674,3.718,3.718,0,0,1,.8-1.3,3.613,3.613,0,0,1,1.253-.841,4.3,4.3,0,0,1,1.638-.3,5.065,5.065,0,0,1,1.372.178,3.625,3.625,0,0,1,1.113.514,2.781,2.781,0,0,1,.77.8,2.345,2.345,0,0,1,.347,1.042h-1.13a1.59,1.59,0,0,0-.7-1.189,3,3,0,0,0-1.749-.44,3.1,3.1,0,0,0-1.165.212,2.458,2.458,0,0,0-.9.622,2.828,2.828,0,0,0-.584,1,4.153,4.153,0,0,0-.207,1.37,4.11,4.11,0,0,0,.2,1.344,2.9,2.9,0,0,0,.579,1.012,2.463,2.463,0,0,0,.906.637,3.051,3.051,0,0,0,1.177.22,3.14,3.14,0,0,0,2.664-1.138V83.367h-2.189v-.954h3.248v4.062h-.78l-.278-.838a3.334,3.334,0,0,1-2.653.975" transform="translate(-407.762 -39.936)"/><path class="d" d="M539.479,86.5H533.3v-7.95h5.982v.938h-4.9v2.427h4.575v.949h-4.575v2.684h5.094Z" transform="translate(-409.511 -39.962)"/><path class="d" d="M548.948,86.5h-1.124l-4.34-6.278V86.5h-1.026v-7.95h1.107l4.346,6.273V78.551h1.037Z" transform="translate(-410.944 -39.962)"/><path class="d" d="M559.14,80.919h-1.13a1.815,1.815,0,0,0-.223-.671,1.711,1.711,0,0,0-.459-.516,2.113,2.113,0,0,0-.68-.327,3.082,3.082,0,0,0-.87-.116,2.908,2.908,0,0,0-1.148.217,2.357,2.357,0,0,0-.859.624,2.788,2.788,0,0,0-.541,1,4.556,4.556,0,0,0-.187,1.362,4.449,4.449,0,0,0,.193,1.373,2.935,2.935,0,0,0,.543,1.01,2.225,2.225,0,0,0,.849.621,2.882,2.882,0,0,0,1.127.21,2.466,2.466,0,0,0,1.6-.462,1.832,1.832,0,0,0,.658-1.3h1.13a2.876,2.876,0,0,1-.337,1.142,2.669,2.669,0,0,1-.727.836,3.165,3.165,0,0,1-1.037.511,4.467,4.467,0,0,1-1.266.174,4.268,4.268,0,0,1-1.6-.288,3.365,3.365,0,0,1-1.216-.826,3.7,3.7,0,0,1-.776-1.3,5.476,5.476,0,0,1,0-3.412,3.666,3.666,0,0,1,.776-1.294,3.383,3.383,0,0,1,1.216-.824,4.268,4.268,0,0,1,1.6-.288,4.2,4.2,0,0,1,1.255.183,3.5,3.5,0,0,1,1.041.518,2.723,2.723,0,0,1,.731.8,2.526,2.526,0,0,1,.341,1.035" transform="translate(-412.423 -39.936)"/><path class="d" d="M568.476,86.5H562.3v-7.95h5.982v.938h-4.9v2.427h4.575v.949h-4.575v2.684h5.094Z" transform="translate(-414.051 -39.962)"/><path class="d" d="M417.941,45.844c-1.247,3.741,2.663,4.356,2.037,6.7-.409,1.536-1.585,3.234-2.7,3.234s-.638-1.347-.638-1.347l.935-1.853h-2.828c-3.3,4.985-.284,6.2,1.143,6.2a7.817,7.817,0,0,0,5.73-3.6c1.75-2.628,2.214-5.794.709-7.209a2.826,2.826,0,0,1-1.1-2.9c.057-.3.712-2.358,2.223-2.358s-.127,3.065-.127,3.065h2.771s3.643-6.1-1.228-6.1c-3.612,0-6.119,3.762-6.919,6.164" transform="translate(-390.713 -33.876)"/><path class="d" d="M404.259,46.982h3.611l-5.043,10.689h4.085L418.645,32.8h-4.085l-4.779,10.131h-3.611L410.95,32.8h-4.084L395.133,57.671h4.084Z" transform="translate(-387.875 -32.798)"/><path class="d" d="M417.872,56.213c-10.146,5.928-22.368,7.094-31.344,3.941l12.477,6.668c7.447-.718,15.807-4.367,23.154-10.754a47.421,47.421,0,0,0,11.494-14.692,46.72,46.72,0,0,1-15.782,14.837" transform="translate(-386.528 -34.141)"/></g></g></svg>