<svg xmlns="http://www.w3.org/2000/svg" width="16" height="16" viewBox="0 0 16 16"><defs><style>.a{fill:none;}.b{fill:#fff;}</style></defs><g transform="translate(0 -0.235)"><rect class="a" width="16" height="16" transform="translate(0 0.235)"/><path class="b" d="M14.933,0A1.018,1.018,0,0,1,15.6.267a.95.95,0,0,1,.4.8v10a1.018,1.018,0,0,1-.267.667,1.43,1.43,0,0,1-.8.267H1.067a1.43,1.43,0,0,1-.8-.267,1.43,1.43,0,0,1-.267-.8V1.067A1.018,1.018,0,0,1,.267.4a.95.95,0,0,1,.8-.4ZM4.533,2.4A1.514,1.514,0,0,0,3.467,2,1.514,1.514,0,0,0,2.4,2.4,1.514,1.514,0,0,0,2,3.467a1.514,1.514,0,0,0,.4,1.067,1.514,1.514,0,0,0,1.067.4,1.514,1.514,0,0,0,1.067-.4,1.514,1.514,0,0,0,.4-1.067A1.514,1.514,0,0,0,4.533,2.4ZM14,10,10,4,6.4,8.667,4,6.933,2,10Z" transform="translate(0 2)"/></g></svg>