<svg xmlns="http://www.w3.org/2000/svg" width="218.889" height="46.033" viewBox="0 0 218.889 46.033"><defs><style>.a{fill:#fff;}</style></defs><g transform="translate(-786.736 19.407)"><path class="a" d="M848.623,7.168V-14.781h4.431v8.64h8.684v-8.64h4.432V7.168h-4.432v-9.6h-8.684v9.6Z" transform="translate(11.634 0.87)"/><rect class="a" width="4.431" height="21.949" transform="translate(882.252 -13.911)"/><path class="a" d="M880.647.085l4.312-.419a5.272,5.272,0,0,0,1.579,3.19,4.783,4.783,0,0,0,3.212,1.018,4.932,4.932,0,0,0,3.227-.906A2.7,2.7,0,0,0,894.063.849a2,2,0,0,0-.457-1.325,3.647,3.647,0,0,0-1.6-.952q-.777-.269-3.549-.958a12.035,12.035,0,0,1-5-2.172,5.705,5.705,0,0,1-2.022-4.417,5.642,5.642,0,0,1,.952-3.137,5.952,5.952,0,0,1,2.74-2.223,10.986,10.986,0,0,1,4.321-.764q4.129,0,6.219,1.813a6.391,6.391,0,0,1,2.193,4.836l-4.43.194a3.764,3.764,0,0,0-1.222-2.433,4.457,4.457,0,0,0-2.806-.74,5.064,5.064,0,0,0-3.026.794,1.6,1.6,0,0,0-.7,1.361,1.689,1.689,0,0,0,.658,1.333,11.65,11.65,0,0,0,4.074,1.467,21.485,21.485,0,0,1,4.783,1.58,6.174,6.174,0,0,1,2.426,2.231,6.527,6.527,0,0,1,.876,3.5,6.458,6.458,0,0,1-1.048,3.532,6.276,6.276,0,0,1-2.964,2.45,12.454,12.454,0,0,1-4.777.8,9.5,9.5,0,0,1-6.394-1.925A8.364,8.364,0,0,1,880.647.085" transform="translate(17.654 0.81)"/><path class="a" d="M898.821,7.168V-14.781h4.431v8.64h8.684v-8.64h4.432V7.168h-4.432v-9.6h-8.684v9.6Z" transform="translate(21.071 0.87)"/><path class="a" d="M937.594,7.168h-4.82l-1.917-4.985h-8.773l-1.812,4.985h-4.7l8.55-21.949h4.687Zm-8.16-8.684L926.41-9.66l-2.965,8.144Z" transform="translate(24.219 0.87)"/><path class="a" d="M936.1,7.168V-14.78h9.328a15.961,15.961,0,0,1,5.112.59,5.048,5.048,0,0,1,2.553,2.1,6.319,6.319,0,0,1,.959,3.458,5.859,5.859,0,0,1-1.452,4.08,6.977,6.977,0,0,1-4.342,2.029,10.432,10.432,0,0,1,2.373,1.841,25.338,25.338,0,0,1,2.522,3.564l2.68,4.282h-5.3l-3.2-4.776a30.974,30.974,0,0,0-2.336-3.228,3.391,3.391,0,0,0-1.332-.911,7.3,7.3,0,0,0-2.231-.247h-.9V7.168ZM940.533-5.5h3.279a16.933,16.933,0,0,0,3.982-.27,2.379,2.379,0,0,0,1.243-.928,2.872,2.872,0,0,0,.449-1.648,2.637,2.637,0,0,0-.592-1.789,2.715,2.715,0,0,0-1.669-.86q-.54-.075-3.234-.075h-3.458Z" transform="translate(28.079 0.87)"/><path class="a" d="M954.729,7.168V-14.78h7.11a25.918,25.918,0,0,1,5.271.328,5.771,5.771,0,0,1,3.16,2.149,6.823,6.823,0,0,1,1.272,4.276,7.157,7.157,0,0,1-.734,3.4,5.969,5.969,0,0,1-1.865,2.162,6.371,6.371,0,0,1-2.3,1.042,25.322,25.322,0,0,1-4.595.315h-2.892V7.168Zm4.43-18.236v6.229h2.427a11.521,11.521,0,0,0,3.5-.343,2.907,2.907,0,0,0,1.383-1.08,2.944,2.944,0,0,0,.5-1.707,2.834,2.834,0,0,0-.7-1.976,3.046,3.046,0,0,0-1.782-.973,21.312,21.312,0,0,0-3.189-.15Z" transform="translate(31.581 0.87)"/><path class="a" d="M848.727,19.174V10.25h6.453V11.3h-5.273v2.734h4.937v1.048h-4.937V18.12h5.48v1.054Z" transform="translate(11.654 5.575)"/><path class="a" d="M855.665,19.174V10.25h1.181v7.87h4.394v1.054Z" transform="translate(12.958 5.575)"/><path class="a" d="M861.562,19.174V10.25h6.453V11.3h-5.271v2.734h4.935v1.048h-4.935V18.12h5.478v1.054Z" transform="translate(14.066 5.575)"/><path class="a" d="M874.964,16.068l1.181.3a3.975,3.975,0,0,1-1.337,2.218,3.67,3.67,0,0,1-2.357.764,4.246,4.246,0,0,1-2.347-.587,3.669,3.669,0,0,1-1.376-1.7,6.067,6.067,0,0,1-.472-2.393,5.242,5.242,0,0,1,.533-2.432A3.639,3.639,0,0,1,870.3,10.66a4.42,4.42,0,0,1,2.165-.539,3.652,3.652,0,0,1,2.251.682,3.54,3.54,0,0,1,1.272,1.919l-1.162.272a2.767,2.767,0,0,0-.9-1.417,2.4,2.4,0,0,0-1.486-.444,2.878,2.878,0,0,0-1.719.493,2.6,2.6,0,0,0-.971,1.323,5.314,5.314,0,0,0-.28,1.714,5.455,5.455,0,0,0,.331,1.988,2.476,2.476,0,0,0,1.031,1.271,2.928,2.928,0,0,0,1.516.418,2.544,2.544,0,0,0,1.681-.573,2.936,2.936,0,0,0,.932-1.7" transform="translate(15.325 5.551)"/><path class="a" d="M878.5,19.174V11.3h-2.94V10.25h7.073V11.3h-2.952v7.872Z" transform="translate(16.697 5.575)"/><path class="a" d="M882.547,19.174V10.25H886.5a5.3,5.3,0,0,1,1.815.239,2,2,0,0,1,.993.851,2.543,2.543,0,0,1,.371,1.345,2.242,2.242,0,0,1-.615,1.6,3.122,3.122,0,0,1-1.9.828,3.016,3.016,0,0,1,.712.444,6.105,6.105,0,0,1,.98,1.187l1.553,2.429h-1.486l-1.181-1.857q-.517-.805-.852-1.231a2.626,2.626,0,0,0-.6-.6,1.712,1.712,0,0,0-.537-.238,3.543,3.543,0,0,0-.658-.043h-1.368v3.963Zm1.181-4.987h2.537a3.848,3.848,0,0,0,1.266-.166,1.338,1.338,0,0,0,.693-.536,1.444,1.444,0,0,0,.238-.8A1.337,1.337,0,0,0,888,11.642a2.158,2.158,0,0,0-1.452-.406h-2.824Z" transform="translate(18.011 5.575)"/><path class="a" d="M889.807,14.851A4.85,4.85,0,0,1,891,11.373a4.057,4.057,0,0,1,3.081-1.256,4.27,4.27,0,0,1,2.227.589,3.857,3.857,0,0,1,1.513,1.647,5.351,5.351,0,0,1,.519,2.395,5.266,5.266,0,0,1-.546,2.429,3.74,3.74,0,0,1-1.552,1.622,4.441,4.441,0,0,1-2.168.551,4.217,4.217,0,0,1-2.251-.608,3.918,3.918,0,0,1-1.506-1.662,5.049,5.049,0,0,1-.51-2.229m1.217.019a3.574,3.574,0,0,0,.868,2.541,3.028,3.028,0,0,0,4.371-.008,3.794,3.794,0,0,0,.861-2.661,4.561,4.561,0,0,0-.368-1.9,2.838,2.838,0,0,0-1.077-1.259,2.907,2.907,0,0,0-1.591-.448,3.021,3.021,0,0,0-2.159.861,3.842,3.842,0,0,0-.905,2.876" transform="translate(19.376 5.55)"/><path class="a" d="M898.262,19.174V10.25h1.212l4.688,7.007V10.25h1.132v8.924H904.08l-4.687-7.013v7.013Z" transform="translate(20.965 5.575)"/><rect class="a" width="1.181" height="8.924" transform="translate(928.443 15.824)"/><path class="a" d="M915.188,16.068l1.181.3a3.983,3.983,0,0,1-1.335,2.218,3.675,3.675,0,0,1-2.359.764,4.246,4.246,0,0,1-2.347-.587,3.666,3.666,0,0,1-1.375-1.7,6.048,6.048,0,0,1-.473-2.393,5.259,5.259,0,0,1,.533-2.432,3.653,3.653,0,0,1,1.515-1.576,4.426,4.426,0,0,1,2.165-.539,3.657,3.657,0,0,1,2.253.682,3.556,3.556,0,0,1,1.273,1.919l-1.163.272a2.763,2.763,0,0,0-.9-1.417,2.4,2.4,0,0,0-1.485-.444,2.882,2.882,0,0,0-1.719.493,2.6,2.6,0,0,0-.971,1.323,5.343,5.343,0,0,0-.28,1.714,5.479,5.479,0,0,0,.332,1.988,2.482,2.482,0,0,0,1.031,1.271,2.929,2.929,0,0,0,1.517.418,2.548,2.548,0,0,0,1.681-.573,2.932,2.932,0,0,0,.93-1.7" transform="translate(22.886 5.551)"/><path class="a" d="M916.007,16.331l1.112-.1a2.463,2.463,0,0,0,.368,1.1,2.027,2.027,0,0,0,.9.694,3.389,3.389,0,0,0,1.369.266,3.272,3.272,0,0,0,1.194-.2,1.648,1.648,0,0,0,.77-.551,1.282,1.282,0,0,0,.253-.763,1.172,1.172,0,0,0-.244-.734,1.834,1.834,0,0,0-.8-.526,15.251,15.251,0,0,0-1.589-.436,8.068,8.068,0,0,1-1.721-.556,2.42,2.42,0,0,1-.953-.832,2.024,2.024,0,0,1-.312-1.11,2.285,2.285,0,0,1,.381-1.265,2.4,2.4,0,0,1,1.123-.892,4.278,4.278,0,0,1,1.636-.3,4.446,4.446,0,0,1,1.749.32,2.524,2.524,0,0,1,1.167.94,2.714,2.714,0,0,1,.438,1.407l-1.132.086a1.813,1.813,0,0,0-.619-1.278,2.4,2.4,0,0,0-1.553-.432,2.5,2.5,0,0,0-1.562.392,1.181,1.181,0,0,0-.492.948,1.013,1.013,0,0,0,.349.791,4.7,4.7,0,0,0,1.779.636,11.9,11.9,0,0,1,1.977.57,2.69,2.69,0,0,1,1.15.91,2.21,2.21,0,0,1,.369,1.268,2.421,2.421,0,0,1-.406,1.342A2.675,2.675,0,0,1,921.53,19a4.091,4.091,0,0,1-1.72.349A5.111,5.111,0,0,1,917.781,19a2.839,2.839,0,0,1-1.284-1.061,3,3,0,0,1-.49-1.6" transform="translate(24.301 5.551)"/><path class="a" d="M932.682,16.068l1.18.3a3.969,3.969,0,0,1-1.335,2.218,3.674,3.674,0,0,1-2.359.764,4.249,4.249,0,0,1-2.348-.587,3.667,3.667,0,0,1-1.375-1.7,6.07,6.07,0,0,1-.472-2.393,5.257,5.257,0,0,1,.532-2.432,3.649,3.649,0,0,1,1.516-1.576,4.418,4.418,0,0,1,2.163-.539,3.663,3.663,0,0,1,2.254.682,3.561,3.561,0,0,1,1.272,1.919l-1.163.272a2.762,2.762,0,0,0-.9-1.417,2.408,2.408,0,0,0-1.486-.444,2.879,2.879,0,0,0-1.719.493,2.605,2.605,0,0,0-.972,1.323,5.375,5.375,0,0,0-.279,1.714,5.48,5.48,0,0,0,.33,1.988,2.491,2.491,0,0,0,1.032,1.271,2.923,2.923,0,0,0,1.517.418,2.546,2.546,0,0,0,1.68-.573,2.934,2.934,0,0,0,.931-1.7" transform="translate(26.175 5.551)"/><path class="a" d="M933.536,14.851a4.855,4.855,0,0,1,1.191-3.478,4.061,4.061,0,0,1,3.081-1.256,4.27,4.27,0,0,1,2.227.589,3.844,3.844,0,0,1,1.514,1.647,5.336,5.336,0,0,1,.521,2.395,5.251,5.251,0,0,1-.549,2.429A3.724,3.724,0,0,1,939.97,18.8a4.441,4.441,0,0,1-2.168.551,4.22,4.22,0,0,1-2.251-.608,3.9,3.9,0,0,1-1.5-1.662,5.036,5.036,0,0,1-.511-2.229m1.216.019a3.578,3.578,0,0,0,.867,2.541,3.028,3.028,0,0,0,4.371-.008,3.784,3.784,0,0,0,.862-2.661,4.562,4.562,0,0,0-.369-1.9,2.822,2.822,0,0,0-1.076-1.259,2.918,2.918,0,0,0-1.593-.448,3.023,3.023,0,0,0-2.157.861,3.847,3.847,0,0,0-.9,2.876" transform="translate(27.596 5.55)"/><rect class="a" width="1.247" height="1.247" transform="translate(971.36 23.501)"/><path class="a" d="M945.051,17.959V16.712H946.3v1.247a2.219,2.219,0,0,1-.243,1.11,1.583,1.583,0,0,1-.774.655l-.3-.467a1.044,1.044,0,0,0,.512-.449,1.882,1.882,0,0,0,.183-.848Z" transform="translate(29.747 6.79)"/><path class="a" d="M950.707,19.174V10.25h1.181v7.87h4.394v1.054Z" transform="translate(30.824 5.575)"/><path class="a" d="M958.182,19.174V11.3h-2.942V10.25h7.074V11.3h-2.952v7.872Z" transform="translate(31.677 5.575)"/><path class="a" d="M962.215,19.174V10.25h3.076a7.451,7.451,0,0,1,1.588.127,3.021,3.021,0,0,1,1.308.639,3.617,3.617,0,0,1,1.056,1.527,5.978,5.978,0,0,1,.35,2.119,6.275,6.275,0,0,1-.237,1.8,4.4,4.4,0,0,1-.609,1.3,3.237,3.237,0,0,1-.812.809,3.277,3.277,0,0,1-1.066.448,6.108,6.108,0,0,1-1.434.153ZM963.4,18.12H965.3a4.644,4.644,0,0,0,1.385-.164,1.966,1.966,0,0,0,.8-.465,2.813,2.813,0,0,0,.655-1.127,5.5,5.5,0,0,0,.234-1.72,4.164,4.164,0,0,0-.459-2.151,2.319,2.319,0,0,0-1.118-1.009,4.66,4.66,0,0,0-1.528-.183H963.4Z" transform="translate(32.988 5.575)"/><rect class="a" width="1.247" height="1.247" transform="translate(1004.378 23.501)"/><path class="a" d="M820.064-3.843c-1.757,5.269,3.752,6.136,2.869,9.441-.576,2.163-2.232,4.555-3.809,4.555s-.9-1.9-.9-1.9l1.316-2.61h-3.983c-4.651,7.022-.4,8.729,1.61,8.729,1.815,0,5.607-1.376,8.071-5.075s3.118-8.161,1-10.154-1.637-3.653-1.555-4.08,1-3.322,3.132-3.322-.179,4.317-.179,4.317h3.9s5.131-8.587-1.73-8.587c-5.087,0-8.619,5.3-9.746,8.682" transform="translate(5.024 1.294)"/><path class="a" d="M808.2.571h5.086l-7.1,15.057h5.753L828.46-19.407h-5.753l-6.731,14.27h-5.086l6.731-14.27h-5.752L795.341,15.628h5.753Z" transform="translate(1.618)"/><path class="a" d="M830.885,10.07c-14.291,8.349-31.507,9.992-44.149,5.551l17.575,9.392C814.8,24,826.575,18.862,836.925,9.866a66.794,66.794,0,0,0,16.19-20.695,65.806,65.806,0,0,1-22.23,20.9" transform="translate(0 1.613)"/></g></svg>