<svg xmlns="http://www.w3.org/2000/svg" width="100" height="51.534" viewBox="0 0 100 51.534"><defs><style>.a{fill:#222e3c;}.b{isolation:isolate;}</style></defs><g transform="translate(0)"><g transform="translate(0)"><path class="a" d="M638.068,488.535a11.69,11.69,0,0,0,4.365-9.274,11.815,11.815,0,0,0-16.68-10.723c-1.291.59-1.6.354-2.137-.816a15.537,15.537,0,0,0-20.189-8.251,17.349,17.349,0,0,0-7.271,5.914c-.305.395-.421,1.035-1.293.737,2.431-7.669,7.371-12.712,15.362-14.146,7.853-1.408,14.311,1.372,19.058,7.748.965,1.3,1.983,1.248,3.22,1.259a14.466,14.466,0,0,1,13.838,10.413,14.671,14.671,0,0,1-6.275,16.513A2.7,2.7,0,0,1,638.068,488.535Z" transform="translate(-572.152 -451.617)"/><path class="a" d="M546.96,525.286c-3.455-1.253-5.417-3.99-6.7-7.175a14.524,14.524,0,0,1,14.113-20.028,3.642,3.642,0,0,0,3.315-1.517c4.805-5.7,11-8.129,18.357-6.814,7.274,1.3,12.18,5.653,14.793,12.561.253.668.631,1.344,0,2.173a42.188,42.188,0,0,0-2.7-3.363,15.594,15.594,0,0,0-25.273,3.86c-.529,1.028-.739,1.734-2.237.986a11.676,11.676,0,0,0-14.454,3.058,11.808,11.808,0,0,0,.1,15.073c.281.356.516.748.773,1.124Z" transform="translate(-539.153 -473.863)"/><g class="b" transform="translate(13.182 38.698)"><path class="a" d="M571.966,554.634v-7.278h1.47v2.864h2.879v-2.864h1.469v7.278h-1.469v-3.182h-2.879v3.182Z" transform="translate(-571.966 -547.232)"/><path class="a" d="M590.12,554.634v-7.278h1.469v7.278Z" transform="translate(-582.827 -547.232)"/><path class="a" d="M603.366,552.081l1.43-.139A1.743,1.743,0,0,0,605.32,553a1.583,1.583,0,0,0,1.065.337,1.637,1.637,0,0,0,1.07-.3.892.892,0,0,0,.36-.7.664.664,0,0,0-.151-.44,1.214,1.214,0,0,0-.529-.315q-.259-.089-1.177-.318a3.99,3.99,0,0,1-1.658-.72,1.9,1.9,0,0,1-.67-1.464,1.868,1.868,0,0,1,.316-1.04,1.968,1.968,0,0,1,.908-.737,3.643,3.643,0,0,1,1.433-.253,3.073,3.073,0,0,1,2.063.6,2.119,2.119,0,0,1,.727,1.6l-1.469.064a1.247,1.247,0,0,0-.4-.806,1.481,1.481,0,0,0-.931-.246,1.681,1.681,0,0,0-1,.263.531.531,0,0,0-.233.452.559.559,0,0,0,.218.442,3.856,3.856,0,0,0,1.351.487,7.163,7.163,0,0,1,1.586.524,2.041,2.041,0,0,1,.8.74,2.29,2.29,0,0,1-.057,2.331,2.081,2.081,0,0,1-.983.812,4.129,4.129,0,0,1-1.584.266,3.153,3.153,0,0,1-2.12-.638A2.777,2.777,0,0,1,603.366,552.081Z" transform="translate(-590.752 -547.047)"/><path class="a" d="M621.187,554.634v-7.278h1.47v2.864h2.879v-2.864h1.47v7.278h-1.47v-3.182h-2.879v3.182Z" transform="translate(-601.241 -547.232)"/><path class="a" d="M644.913,554.634h-1.6l-.635-1.654H639.77l-.6,1.654H637.61l2.835-7.278H642Zm-2.705-2.879-1-2.7-.984,2.7Z" transform="translate(-611.005 -547.232)"/><path class="a" d="M657.74,554.634v-7.278h3.093a5.3,5.3,0,0,1,1.7.2,1.673,1.673,0,0,1,.847.7,2.1,2.1,0,0,1,.318,1.147,1.943,1.943,0,0,1-.482,1.353,2.314,2.314,0,0,1-1.44.673,3.4,3.4,0,0,1,.787.61,8.272,8.272,0,0,1,.836,1.182l.889,1.42h-1.757l-1.062-1.584a10.371,10.371,0,0,0-.774-1.07,1.139,1.139,0,0,0-.442-.3,2.437,2.437,0,0,0-.74-.082h-.3v3.038Zm1.47-4.2H660.3a5.625,5.625,0,0,0,1.321-.089.792.792,0,0,0,.412-.308.944.944,0,0,0,.149-.546.874.874,0,0,0-.2-.593.9.9,0,0,0-.554-.286q-.178-.025-1.072-.024H659.21Z" transform="translate(-622.979 -547.232)"/><path class="a" d="M676.005,554.634v-7.278h2.358a8.56,8.56,0,0,1,1.748.109,1.91,1.91,0,0,1,1.047.712,2.261,2.261,0,0,1,.422,1.418,2.37,2.37,0,0,1-.243,1.126,1.993,1.993,0,0,1-.618.718,2.134,2.134,0,0,1-.762.345,8.351,8.351,0,0,1-1.524.1h-.958v2.745Zm1.47-6.047v2.065h.8a3.793,3.793,0,0,0,1.162-.115.962.962,0,0,0,.459-.357.978.978,0,0,0,.166-.566.94.94,0,0,0-.233-.655,1.015,1.015,0,0,0-.591-.323,7.005,7.005,0,0,0-1.057-.05Z" transform="translate(-633.846 -547.232)"/><path class="a" d="M703.732,551.773l1.425.452a3.2,3.2,0,0,1-1.09,1.77,3.43,3.43,0,0,1-4.317-.412,3.789,3.789,0,0,1-.934-2.708,3.98,3.98,0,0,1,.938-2.822,3.219,3.219,0,0,1,2.467-1.005,3.024,3.024,0,0,1,2.169.79,2.863,2.863,0,0,1,.745,1.34l-1.454.347a1.5,1.5,0,0,0-1.535-1.221,1.656,1.656,0,0,0-1.313.581,2.848,2.848,0,0,0-.5,1.882,3.055,3.055,0,0,0,.5,1.966,1.613,1.613,0,0,0,1.291.586,1.473,1.473,0,0,0,1.008-.372A2.166,2.166,0,0,0,703.732,551.773Z" transform="translate(-647.41 -547.047)"/><path class="a" d="M716.995,550.855a4.631,4.631,0,0,1,.333-1.866,3.432,3.432,0,0,1,.678-1,2.829,2.829,0,0,1,.941-.656,3.994,3.994,0,0,1,1.569-.288,3.417,3.417,0,0,1,2.574,1,4.459,4.459,0,0,1,.008,5.533,3.389,3.389,0,0,1-2.561,1,3.424,3.424,0,0,1-2.582-.99A3.757,3.757,0,0,1,716.995,550.855Zm1.515-.049a2.726,2.726,0,0,0,.571,1.874,1.962,1.962,0,0,0,2.892,0,2.781,2.781,0,0,0,.563-1.9,2.738,2.738,0,0,0-.548-1.867,2.033,2.033,0,0,0-2.922.008A2.751,2.751,0,0,0,718.51,550.805Z" transform="translate(-652.138 -547.047)"/><path class="a" d="M737.4,547.356h1.47V551.3a8.241,8.241,0,0,0,.054,1.216,1.179,1.179,0,0,0,.45.717,1.561,1.561,0,0,0,.971.271,1.48,1.48,0,0,0,.943-.255,1.009,1.009,0,0,0,.382-.628,8.184,8.184,0,0,0,.065-1.236v-4.026h1.47v3.823a9.808,9.808,0,0,1-.119,1.852,2.044,2.044,0,0,1-.439.913,2.214,2.214,0,0,1-.856.593,3.714,3.714,0,0,1-1.4.221,4.037,4.037,0,0,1-1.581-.24,2.267,2.267,0,0,1-.852-.626,2.01,2.01,0,0,1-.412-.807,8.831,8.831,0,0,1-.144-1.847Z" transform="translate(-664.214 -547.232)"/><path class="a" d="M755.8,554.723v-7.218h1.469V553.5h3.654v1.227Z" transform="translate(-696.708 -547.321)"/><path class="a" d="M771.147,547.356h2.686a5.253,5.253,0,0,1,1.385.139,2.437,2.437,0,0,1,1.1.67,3.18,3.18,0,0,1,.695,1.18,5.375,5.375,0,0,1,.238,1.72,4.778,4.778,0,0,1-.224,1.549,3.208,3.208,0,0,1-.779,1.286,2.588,2.588,0,0,1-1.032.581,4.455,4.455,0,0,1-1.3.154h-2.765Zm1.47,1.231v4.82h1.1a4.015,4.015,0,0,0,.889-.069,1.349,1.349,0,0,0,.593-.3,1.536,1.536,0,0,0,.385-.7A4.746,4.746,0,0,0,775.73,551a4.348,4.348,0,0,0-.149-1.3,1.669,1.669,0,0,0-.417-.705,1.4,1.4,0,0,0-.68-.342,6.688,6.688,0,0,0-1.206-.07Z" transform="translate(-690.431 -547.232)"/></g><rect class="a" width="86.67" height="0.803" transform="translate(13.196 50.731)"/><rect class="a" width="47.405" height="0.193" transform="translate(13.196 48.32)"/></g></g></svg>