<svg xmlns="http://www.w3.org/2000/svg" width="71.541" height="71.538" viewBox="0 0 71.541 71.538"><defs><style>.a{fill:#fff;}.b{fill:#fff100;}</style></defs><path class="a" d="M1118.678,240.845h-5.832a1.511,1.511,0,0,1,0-3.023h1.388l-5.745-4.414a1.507,1.507,0,0,1-.593-1.2V217.234H1096.34v3.778a1.51,1.51,0,0,1-2.431,1.2l-9.1-6.991-29.418,22.6h1.384a1.511,1.511,0,1,1,0,3.023h-5.829a1.509,1.509,0,0,1-.918-2.708l33.86-26.019a1.512,1.512,0,0,1,1.842,0l7.583,5.827v-2.221a1.511,1.511,0,0,1,1.511-1.511h14.576a1.511,1.511,0,0,1,1.514,1.511v15.743l8.677,6.671a1.51,1.51,0,0,1-.919,2.708" transform="translate(-1049.439 -211.805)"/><path class="a" d="M1083.814,266.7h-26.8a1.512,1.512,0,0,1-1.512-1.512V235.689a1.509,1.509,0,0,1,.592-1.2l23.5-18.058a1.513,1.513,0,0,1,1.842,0l23.5,18.058a1.51,1.51,0,0,1,.591,1.2v3.778a1.509,1.509,0,0,1-1.86,1.469l-4.614-1.1-14.608,3.479v18.068a10.679,10.679,0,0,0,.774,3.252,1.511,1.511,0,0,1-1.407,2.057m-25.288-3.023h23.231a10.452,10.452,0,0,1-.332-2.273V242.124a1.512,1.512,0,0,1,1.162-1.469l16.119-3.84a1.51,1.51,0,0,1,.7,0l3.1.74v-1.121l-21.991-16.9-21.99,16.9Zm24.411-2.274h0Z" transform="translate(-1045.141 -208.747)"/><path class="b" d="M1088.3,271.719a1.5,1.5,0,0,1-.582-.118c-16.853-7.042-17.048-18.3-17.048-18.769V233.559a1.512,1.512,0,0,1,1.162-1.469l16.119-3.841a1.509,1.509,0,0,1,.7,0l16.12,3.841a1.51,1.51,0,0,1,1.158,1.469v19.273c0,.473-.191,11.727-17.044,18.769a1.507,1.507,0,0,1-.583.118M1073.7,234.752v18.08c.007.381.3,9.518,14.608,15.734,14.305-6.217,14.6-15.353,14.608-15.746V234.752l-14.608-3.479Z" transform="translate(-1034.39 -200.18)"/><path class="b" d="M1074.179,240.325v3.918c.012.243.409,7.108,11.64,12.426V240.325Z" transform="translate(-1031.905 -191.592)"/><path class="b" d="M1092.63,246.356V234.589l-11.64-2.773v14.54Z" transform="translate(-1027.077 -197.622)"/></svg>