<svg xmlns="http://www.w3.org/2000/svg" width="18.376" height="16.961" viewBox="0 0 18.376 16.961"><defs><style>.a{fill:none;stroke:#71092d;stroke-miterlimit:10;stroke-width:1.5px;}.b{fill:#71092d;}</style></defs><g transform="translate(0.75 0.75)"><path class="a" d="M58.186,67.2,51.712,55.664a1.94,1.94,0,0,0-3.387,0l-1.083,1.93h0l-5.39,9.6a1.951,1.951,0,0,0-.271.963,1.914,1.914,0,0,0,1.972,1.972H56.5a1.9,1.9,0,0,0,1.957-1.972A1.805,1.805,0,0,0,58.186,67.2Z" transform="translate(-41.581 -54.67)"/><g transform="translate(7.256 3.861)"><rect class="b" width="1.822" height="6.157" rx="0.911" transform="translate(0.271)"/><rect class="b" width="2.364" height="2.364" rx="1.182" transform="translate(0 7.226)"/></g></g></svg>