<svg xmlns="http://www.w3.org/2000/svg" width="35.185" height="38.372" viewBox="0 0 35.185 38.372"><defs><style>.a{fill:#fff;}</style></defs><g transform="translate(-814.272 -1043.534)"><path class="a" d="M813.311,1073.3H833.9c-.135,2.9-1.931,4.75-4.364,4.75s-4.229-1.854-4.384-4.75h-1.41c.077,3.476,2.433,6.064,5.793,6.064,3.341,0,5.716-2.588,5.794-6.064h10.428a1.244,1.244,0,0,0,1.371-1.275c0-1.951-1.777-3.592-3.322-5.291-1.951-2.182-1.873-6.624-2.433-10.737-.541-5.291-2.472-9.289-7.087-10.544a4.76,4.76,0,0,0-9.5,0c-4.615,1.255-6.546,5.253-7.106,10.544-.541,4.113-.464,8.554-2.434,10.737-1.525,1.7-3.3,3.341-3.3,5.291A1.244,1.244,0,0,0,813.311,1073.3Zm.29-1.391v-.212c.077-1.043,1.564-2.723,2.781-4.017,2.24-2.337,2.1-7.049,2.723-11.451.637-5.5,2.472-8.4,5.89-9.327.676-.193,1.062-.425,1.139-1.043.251-1.951,1.429-3.476,3.4-3.476s3.148,1.525,3.4,3.476c.077.618.464.849,1.12,1.043,3.437.927,5.253,3.824,5.89,9.327.618,4.4.5,9.115,2.723,11.451,1.236,1.294,2.723,2.974,2.8,4.017v.212Z" transform="translate(2.333 2.544)"/></g></svg>